<svg version="1.2" xmlns="http://www.w3.org/2000/svg" viewBox="0 0 2144 2091" width="50" height="30">
	<title>github-svg</title>
	<style>
		.s0 { fill: #000000 } 
	</style>
	<g id="Layer">
		<path id="Layer" class="s0" d="m1146 2.4c93.9 6.8 180.3 23.9 266 52.6 126.2 42.1 241.1 106.1 345 192 57.9 47.9 117.2 109.2 162.9 168.5 122.1 158.1 196.8 342.9 218.1 539 4 37.2 5.1 57.9 5.7 102.7 0.7 59.8-1.2 96.6-7.8 149.5-25.7 207-111.8 402.1-247.8 561.3-40.4 47.4-93.9 99.5-141.3 137.7-85.7 69.2-179.9 124.3-280.3 163.8-26.7 10.6-51.4 19.3-57.8 20.6-7.8 1.4-26.5 1.1-33.2-0.6-13.7-3.6-24.4-12-30.8-24.3-6.9-13-6.6-3.2-6-179.4 0.4-117.4 0.3-163-0.6-173.3-5.7-67.7-26.9-121.5-62.3-158.1l-8.9-9.2 5.8-0.7c3.2-0.4 13.9-1.8 23.8-3.1 147.6-20.1 250.7-63.1 324.9-135.4 27.8-27.1 47.8-52.8 66.6-85.4 46-80.1 69.8-189.4 67.7-310.6-0.5-30.7-1.8-45.4-5.8-69.5-12.5-74.6-45.4-144.5-94.9-201.5-3.6-4.1-7.1-8.2-7.8-9.1-1.1-1.4-0.6-3.6 2.8-13.5 6.7-19.3 11.1-38.6 14.6-62.9 2.1-15 3-62.2 1.5-79.6-3.3-37.8-11.4-74.8-24.8-112.7-6.7-18.9-5.3-17.7-22.8-18.8-33.2-2.1-87.6 11.1-140 34.2-36.9 16.2-85 43-125.2 69.9l-12.2 8.1-22.8-5.7c-50.4-12.7-104.9-21.8-158.3-26.4-98.1-8.4-197.7-2.6-293.4 17.1-17.8 3.7-44.2 9.9-55.8 13.2l-6.8 1.9-14.7-9.7c-85.8-56.3-164.2-90.9-228.3-100.6-12.7-2-40.8-2.4-47.5-0.8-5 1.2-5.5 2.4-13.5 26.3-14.5 43.8-21.5 82.7-22.7 125.6-1.1 43.5 3.9 80.7 15.8 116.9 2.7 8.2 4.9 15.4 4.9 15.8 0 0.5-2.8 4.1-6.3 8.1-51.9 59.5-84.7 128.6-97.6 205.7-8.6 51-7.8 123.3 1.9 192 10.7 75 32.4 140.1 64.6 193.8 72.5 120.7 198.5 189.9 391.9 215.1 8.8 1.2 17.7 2.4 19.8 2.7l3.8 0.6-8.5 8.8c-28.4 29.5-47.7 70.7-56.9 121.5l-2.4 13-8.8 3.8c-25.6 11-57.8 19.5-86.5 22.7-13.9 1.6-43.6 1.3-57.1-0.5-36.6-4.8-70.2-19.3-99.4-42.8-17.6-14.2-41.2-41.4-54-62.2-21.3-34.8-37.3-54.3-60.5-73.7-44.8-37.6-102-54.9-141.4-42.8-20.7 6.4-22.4 18.6-5.2 36.8 7.5 7.8 24.6 21.1 39 30 27.3 17.1 58.4 52.3 81.6 92.7 8.1 14 20.3 39.3 27 56 8 20 17.1 35.6 30.8 52.6 8.7 10.8 27.2 28.4 38.8 37.1 68.7 51.1 165.6 65.1 283.1 41l9-1.9 0.6 54c1.2 96.1 0.9 154.5-0.8 161-3.8 14.6-13 26.1-25.6 32.2-10.1 4.8-16.1 5.8-31.4 5.2-12.6-0.4-13.4-0.6-29.5-6.2-9.1-3.1-27.1-9.9-40-15-111.9-44.4-215.1-106.8-306-185.1-61-52.6-119.9-116.6-167.2-181.7-104.3-143.6-170.6-308-194.7-482.7-7.2-52.1-9.5-87.7-9.5-147-0.1-47.4 0.6-63.6 4-100.5 19.7-215.9 105.5-421.8 245-588.2 190.4-227 463.3-364.8 756.9-382.3 9.9-0.6 21.4-1.2 25.5-1.4 18.1-0.8 94 0.4 114 1.8z"/>
		<path id="Layer" class="s0" d="m397.1 1523.7c11.5 5.9 13.4 17 3.3 20.3-4.4 1.5-9.6 0.6-15-2.5-9.3-5.4-10.9-15.7-3-19.1 4.7-2 8.7-1.7 14.7 1.3z"/>
		<path id="Layer" class="s0" d="m449.5 1569.4c2.4 3.9 3 6.1 3 10.4 0 4.7-0.4 5.7-2.8 7.8-6.8 5.9-20.3 0.8-25.7-9.6-4-8-3.3-15.6 1.8-18.5 6.6-3.7 18.3 1.2 23.7 9.9z"/>
		<path id="Layer" class="s0" d="m481.8 1614.9c14.3 7.3 20.1 27.5 10 34.5-3.9 2.8-10.9 2-16.4-1.7-12.7-8.5-16.6-26.5-7.2-33.1 3-2.2 9.1-2 13.6 0.3z"/>
		<path id="Layer" class="s0" d="m553 1699.9c0 8.5-4.8 13.1-13.6 13.1-12.4 0-26.3-13.6-26.4-25.8 0-5.3 2.2-9.7 5.8-11.6 12.4-6.8 34.2 8.7 34.2 24.3z"/>
		<path id="Layer" class="s0" d="m619 1724.8c11.1 6.8 14.4 17 7.7 23.7-4.1 4.1-10.4 5.9-17.7 5.1-13.8-1.4-24-10-24-20.3 0-6.3 4.6-10.7 13-12.3 6-1.2 15.7 0.6 21 3.8z"/>
		<path id="Layer" class="s0" d="m795.9 1730.5c6.5 7.5 2.8 17.6-8.6 23.1-4.9 2.5-7 2.9-13.8 2.9-6.6 0-8.8-0.5-12.5-2.5-5.6-3.1-8.5-8.4-7.6-13.6 1.2-6.3 9.5-13.3 18.1-15.5 9.1-2.2 19.6 0.2 24.4 5.6z"/>
		<path id="Layer" class="s0" d="m695.1 1735.1c6.2-0.1 8.4 0.4 12.8 2.5 3.1 1.6 6.1 4 7.2 5.8 2.4 4 2.4 10.2 0 14.2-2.3 3.7-10.5 8-17.2 8.9-5.9 0.9-14.8-1-19.1-3.8-4.2-2.9-7.8-8.3-7.8-11.6 0.1-5.8 5.4-11.9 12.7-14.6 2.1-0.7 7.2-1.4 11.4-1.4z"/>
	</g>
</svg>