<?xml version="1.0" standalone="no"?>
<!DOCTYPE svg PUBLIC "-//W3C//DTD SVG 20010904//EN"
 "http://www.w3.org/TR/2001/REC-SVG-20010904/DTD/svg10.dtd">
<svg version="1.0" xmlns="http://www.w3.org/2000/svg"
 width="1024.000000pt" height="1024.000000pt" viewBox="0 0 1024.000000 1024.000000"
 preserveAspectRatio="xMidYMid meet">

<g transform="translate(0.000000,1024.000000) scale(0.100000,-0.100000)"
fill="#000000" stroke="none">
<path d="M4890 10230 c-52 -5 -160 -13 -240 -19 -277 -19 -620 -82 -930 -170
-154 -44 -221 -66 -385 -127 -22 -8 -63 -23 -91 -33 -102 -37 -455 -204 -580
-275 -217 -123 -245 -140 -359 -215 -369 -246 -773 -596 -1016 -881 -88 -103
-263 -322 -284 -355 -11 -16 -34 -48 -51 -70 -44 -55 -186 -270 -218 -331 -15
-27 -40 -71 -57 -99 -16 -27 -35 -61 -42 -75 -7 -14 -33 -63 -59 -110 -25 -47
-65 -128 -88 -180 -23 -52 -59 -131 -80 -175 -21 -44 -45 -104 -54 -134 -9
-29 -20 -59 -25 -65 -10 -13 -104 -297 -121 -366 -6 -25 -18 -64 -26 -87 -7
-23 -27 -104 -44 -180 -17 -76 -37 -169 -46 -207 -56 -253 -100 -780 -89
-1071 13 -355 44 -620 106 -918 133 -643 371 -1219 734 -1772 203 -310 395
-547 659 -810 569 -568 1220 -973 1986 -1236 294 -101 741 -200 1030 -228 63
-6 165 -17 225 -23 161 -18 615 -14 825 6 581 55 1122 195 1625 419 969 432
1769 1144 2324 2065 103 171 273 516 348 707 95 242 204 582 233 730 5 28 23
113 39 190 108 512 125 1150 45 1715 -24 173 -82 450 -130 623 -203 731 -533
1356 -1033 1957 -124 150 -444 468 -596 595 -935 780 -2024 1187 -3235 1209
-113 2 -248 0 -300 -4z m-1211 -2377 c0 -21 -48 -519 -107 -1108 l-107 -1070
-668 -3 c-367 -1 -667 -1 -667 1 0 1 80 405 179 896 174 871 180 895 221 978
60 121 157 217 282 277 51 25 116 49 143 54 28 6 202 10 388 11 l337 1 -1 -37z
m1331 -1073 l0 -1110 -666 0 -666 0 6 48 c5 40 216 2156 216 2168 0 2 250 4
555 4 l555 0 0 -1110z m1330 1103 c0 -5 50 -500 110 -1101 61 -601 110 -1097
110 -1102 0 -7 -235 -10 -665 -10 l-665 0 0 1110 0 1110 555 0 c305 0 555 -3
555 -7z m1003 -21 c171 -63 296 -171 367 -315 41 -83 47 -107 221 -978 99
-491 179 -895 179 -896 0 -2 -300 -2 -667 -1 l-668 3 -107 1070 c-59 589 -107
1087 -107 1108 l-1 38 363 -3 c341 -4 365 -5 420 -26z m-3883 -2455 c0 -204
-160 -447 -360 -545 -124 -61 -191 -75 -330 -70 -187 8 -315 63 -447 195 -56
56 -82 93 -118 165 -45 92 -74 198 -75 271 l0 37 665 0 665 0 0 -53z m1550 6
c0 -74 -27 -170 -72 -263 -33 -67 -60 -102 -123 -165 -91 -92 -177 -142 -299
-175 -103 -29 -276 -25 -376 8 -248 81 -435 316 -457 575 l-6 67 667 0 666 0
0 -47z m1547 -20 c-22 -258 -210 -494 -457 -575 -100 -33 -273 -37 -376 -8
-122 33 -208 83 -299 175 -63 63 -90 98 -123 165 -45 93 -72 189 -72 263 l0
47 666 0 667 0 -6 -67z m1553 30 c-1 -73 -30 -179 -75 -271 -77 -155 -223
-281 -385 -334 -91 -29 -272 -36 -360 -14 -187 47 -357 181 -438 346 -49 99
-72 183 -72 257 l0 53 665 0 665 0 0 -37z m-4870 -1628 l0 -775 985 0 985 0 0
775 0 775 250 0 250 0 -2 -1107 -3 -1108 -1457 -3 -1458 -2 0 1110 0 1110 225
0 225 0 0 -775z m4208 -332 l-3 -1108 -222 -3 -223 -2 0 1110 0 1110 225 0
225 0 -2 -1107z"/>
</g>
</svg>
