<?xml version="1.0" standalone="no"?>
<!DOCTYPE svg PUBLIC "-//W3C//DTD SVG 20010904//EN"
 "http://www.w3.org/TR/2001/REC-SVG-20010904/DTD/svg10.dtd">
<svg version="1.0" xmlns="http://www.w3.org/2000/svg"
 width="860.000000pt" height="900.000000pt" viewBox="0 0 860.000000 900.000000"
 preserveAspectRatio="xMidYMid meet">

<g transform="translate(0.000000,900.000000) scale(0.100000,-0.100000)"
fill="#000000" stroke="none">
<path d="M3995 8589 c-821 -68 -1563 -363 -2205 -875 -173 -138 -465 -430
-604 -604 -700 -874 -1002 -1973 -845 -3075 102 -717 385 -1368 847 -1947 136
-171 429 -464 600 -600 392 -312 814 -541 1277 -692 1055 -343 2209 -231 3180
309 166 92 404 253 565 381 173 138 466 431 602 602 461 578 745 1231 847
1947 157 1104 -143 2195 -847 3077 -136 171 -429 464 -602 602 -612 490 -1319
781 -2105 866 -136 15 -575 21 -710 9z m-1806 -1508 c121 -38 207 -115 273
-244 28 -56 49 -135 148 -542 22 -93 43 -178 46 -187 5 -17 123 -18 2300 -18
l2294 0 0 -175 0 -176 -156 -472 c-86 -260 -226 -683 -311 -942 -379 -1153
-376 -1143 -398 -1149 -11 -3 -685 -6 -1497 -6 -813 0 -1478 -3 -1478 -7 0
-22 92 -347 104 -372 25 -47 66 -91 105 -110 34 -17 102 -19 1215 -25 1323 -9
1248 -4 1399 -83 98 -51 219 -172 270 -270 103 -198 103 -427 -1 -628 -52
-100 -182 -228 -282 -277 -106 -52 -187 -70 -305 -70 -244 2 -443 116 -570
329 -106 174 -116 392 -30 616 7 16 -23 17 -535 17 -512 0 -542 -1 -535 -18
28 -70 46 -135 54 -201 26 -204 -42 -396 -193 -546 -87 -86 -156 -128 -271
-167 -59 -19 -90 -23 -195 -23 -108 1 -136 5 -205 28 -196 65 -350 217 -423
419 -25 66 -27 86 -26 213 0 126 3 147 27 213 36 101 88 182 163 257 35 35 64
66 64 69 0 3 -14 28 -31 56 -49 80 -61 119 -215 708 -200 768 -200 766 -353
1362 -88 344 -356 1416 -426 1705 -37 154 -76 296 -86 316 -12 24 -29 41 -50
48 -20 7 -125 11 -285 11 l-254 0 0 180 0 180 294 0 c261 0 301 -2 355 -19z"/>
<path d="M2861 5288 c112 -440 203 -799 264 -1033 19 -71 66 -254 105 -405 39
-151 73 -283 76 -292 5 -17 81 -18 1418 -18 l1413 0 26 78 c14 42 145 442 292
887 146 446 295 898 331 1005 35 107 64 199 64 203 0 4 -922 7 -2049 7 l-2049
0 109 -432z"/>
<path d="M3553 2276 c-210 -69 -275 -336 -119 -491 61 -61 121 -85 215 -85 84
0 150 30 208 93 59 64 76 108 77 197 1 85 -19 141 -73 203 -68 77 -210 115
-308 83z"/>
<path d="M5813 2264 c-60 -22 -128 -86 -160 -151 -74 -152 3 -343 163 -402
143 -54 303 9 371 146 22 47 27 71 27 128 0 115 -52 203 -153 263 -56 32 -181
41 -248 16z"/>
</g>
</svg>
